Music_Bicycle:
	channelcount 4
	channel 1, Music_Bicycle_Ch1
	channel 2, Music_Bicycle_Ch2
	channel 3, Music_Bicycle_Ch3
	channel 4, Music_Bicycle_Ch4

Music_Bicycle_Ch1:
	tempo $71
	notetype $c, $c2
	stereopanning $f0
	note __, 16
Music_Bicycle_L1:
	dutycycle $3
	intensity $c2
	octave 3
	note F_, 2
	note F_, 4
	note C_, 4
	note D_, 6
	note F_, 2
	note F_, 4
	note C_, 4
	note D_, 6
	note G_, 2
	note G_, 4
	note G_, 4
	note G_, 6
	note G_, 2
	note G_, 4
	note G_, 4
	note G_, 6
	note F_, 2
	note F_, 4
	note F_, 4
	note F_, 4
	note F_, 4
	note F_, 2
	note F_, 4
	note F_, 4
	note F_, 4
	note G_, 2
	note G_, 4
	note F_, 4
	note G_, 6
	note A_, 2
	note A_, 4
	note G_, 4
	note A_, 6
	dutycycle $0
	intensity $a4
	callchannel Music_Bicycle_P1
	arp $3, $8
	note A_, 4
	note A_, 2
	note A_, 4
	arp $5, $a
	note G_, 4
	arp $3, $8
	note A_, 4
	arp $5, $a
	note G_, 2
	arp $3, $8
	note A_, 4
	arp $2, $7
	note A#, 4
	arp $3, $8
	note A_, 4
	arp $5, $9
	note A#, 4
	note A#, 2
	note A#, 4
	note A#, 6
	octave 4
	note C_, 4
	note C_, 2
	note C_, 4
	note C_, 6
	octave 3
	forceoctave $3
	callchannel Music_Bicycle_P1
	forceoctave $0
	arp $5, $9
	octave 4
	note C#, 4
	note C#, 2
	note C#, 4
	arp $5, $7
	note C#, 4
	arp $5, $9
	note C#, 4
	arp $5, $7
	note C#, 2
	arp $5, $9
	note C#, 4
	arp $5, $a
	note C#, 4
	arp $5, $9
	note C#, 4
	arp $3, $8
	note C_, 4
	note C_, 2
	note C_, 4
	arp $5, $a
	octave 3
	note A#, 4
	arp $3, $8
	octave 4
	note C_, 4
	arp $5, $a
	octave 3
	note A#, 2
	arp $3, $8
	octave 4
	note C_, 4
	arp $2, $7
	note C#, 4
	dutycycle $3
	intensity $c6
	vibrato $10, $21
	arp $0, $0
	octave 3
	note A#, 2
	note G#, 2
	note F#, 6
	note C#, 6
	note A_, 1
	note A#, 3
	note A_, 6
	note A#, 6
	octave 4
	note C_, 4
	note D_, 16
	note __, 12
	octave 3
	note A#, 2
	note G#, 2
	note F#, 6
	note C#, 6
	note A_, 1
	note A#, 3
	note A_, 4
	note A#, 1
	note __, 1
	octave 4
	note C_, 4
	octave 3
	note F_, 2
	note A#, 2
	octave 4
	note C_, 2
	note D_, 6
	octave 3
	note A#, 6
	octave 4
	note D#, 4
	note C_, 1
	note D_, 5
	note C_, 6
	octave 3
	note C_, 2
	note D#, 2
	note F_, 6
	octave 2
	note A#, 6
	octave 3
	note F_, 4
	note A_, 6
	note C_, 6
	note A_, 4
	note A#, 6
	note F_, 6
	note A_, 4
	note A#, 6
	note A_, 6
	note F_, 4
	note D#, 10
	octave 2
	note G_, 2
	octave 3
	note C_, 2
	note D#, 2
	note F_, 10
	octave 2
	note A_, 2
	octave 3
	note D_, 2
	note F_, 2
	note F#, 10
	octave 2
	note A#, 2
	octave 3
	note D#, 2
	note F#, 2
	note G#, 10
	note C_, 2
	note F_, 2
	note G#, 2
	note A_, 6
	note E_, 6
	note A_, 4
	note F#, 4
	note A_, 2
	note B_, 4
	note F#, 2
	note A_, 2
	note B_, 2
	arp $c, $c
	octave 4
	note C#, 16
	arp $0, $0
	octave 3
	note C#, 2
	note __, 12
	dutycycle $0
	intensity $b7
	vibrato $10, $11
	note F_, 1
	note F#, 1
	callchannel Music_Bicycle_P2
	note C#, 6
	note A#, 4
	note G#, 6
	note A#, 4
	note F_, 2
	note F#, 2
	note G#, 1
	note __, 1
	note G#, 1
	note A#, 3
	note F_, 2
	note A#, 4
	note A#, 4
	note A#, 1
	octave 4
	note C_, 5
	note C#, 2
	note C_, 6
	octave 3
	note F_, 2
	note F#, 2
	callchannel Music_Bicycle_P2
	note F_, 1
	note F#, 1
	note F_, 1
	note __, 1
	note C#, 1
	note __, 1
	note D#, 1
	note __, 1
	note D#, 1
	note F_, 5
	note F_, 2
	note F#, 2
	note G#, 4
	note F#, 2
	note G#, 2
	note A#, 4
	note F#, 1
	note __, 1
	note F#, 6
	note A#, 4
	octave 4
	note C_, 4
	octave 3
	note G#, 4
	note F_, 4
	note D#, 4
	loopchannel 0, Music_Bicycle_L1

Music_Bicycle_Ch2:
	dutycycle $1
	notetype $c, $c2
	stereopanning $f
	note __, 16
	octave 3
	note A#, 2
	note A#, 4
Music_Bicycle_L2:
	dutycycle $1
	intensity $c2
	note A#, 4
	note A#, 6
	note A#, 2
	note A#, 4
	note A#, 4
	note A#, 6
	note A#, 2
	note A#, 4
	note A_, 4
	note A#, 6
	note A#, 2
	note A#, 4
	note A_, 4
	note A#, 6
	note A_, 2
	note A_, 4
	note G_, 4
	note A_, 4
	note A#, 4
	note A#, 2
	note A_, 4
	note G_, 4
	note A_, 4
	note A#, 2
	note A#, 4
	note A#, 4
	note A#, 6
	octave 4
	note C_, 2
	note C_, 4
	note C_, 4
	note C_, 2
	dutycycle $2
	intensity $c6
	vibrato $10, $21
	octave 3
	note F_, 2
	note A_, 1
	note __, 1
	callchannel Music_Bicycle_P3
	note C_, 2
	note F_, 4
	note C_, 2
	note F_, 4
	note C_, 2
	note __, 2
	note F_, 4
	note G_, 2
	note F_, 4
	note D#, 3
	note __, 1
	note D#, 2
	note F_, 2
	note C_, 1
	note D_, 3
	octave 3
	note A#, 1
	note __, 1
	note A#, 4
	note F_, 4
	octave 4
	note C_, 6
	octave 3
	note A_, 4
	note A#, 4
	octave 4
	note C_, 4
	octave 3
	forceoctave $3
	callchannel Music_Bicycle_P3
	forceoctave $0
	note D#, 1
	note __, 1
	note F_, 4
	note C#, 1
	note __, 1
	note C#, 4
	octave 3
	note G#, 4
	octave 4
	note C#, 12
	octave 3
	note G#, 2
	octave 4
	note C#, 2
	note D#, 1
	note __, 1
	note D#, 1
	note F_, 3
	note F_, 1
	note __, 1
	note F_, 4
	note F#, 4
	note C#, 1
	note D#, 5
	note C#, 2
	octave 3
	note G#, 2
	octave 4
	note C_, 4
	callchannel Music_Bicycle_P4
	note F_, 16
	note __, 12
	callchannel Music_Bicycle_P4
	note F_, 4
	octave 3
	note A#, 1
	note __, 1
	octave 4
	note F_, 6
	note C_, 4
	note D_, 4
	note D#, 2
	note D_, 6
	octave 3
	note F_, 2
	note A_, 2
	note A#, 6
	note F_, 6
	note A#, 4
	octave 4
	note C_, 6
	octave 3
	note F_, 6
	octave 4
	note C_, 4
	note D_, 6
	octave 3
	note A#, 6
	octave 4
	note D#, 4
	note D_, 6
	note C_, 6
	octave 3
	note A#, 4
	note G_, 10
	octave 2
	note A#, 2
	octave 3
	note D#, 2
	note G_, 2
	note A_, 10
	note C_, 2
	note F_, 2
	note A_, 2
	note A#, 10
	note C#, 2
	note F#, 2
	note A#, 2
	octave 4
	note C_, 10
	octave 3
	note D#, 2
	note G#, 2
	octave 4
	note C_, 2
	note C#, 6
	octave 3
	note A_, 6
	octave 4
	note C#, 4
	octave 3
	note B_, 4
	octave 4
	note C#, 2
	note D#, 2
	note C#, 1
	note D#, 1
	note F#, 1
	note G#, 1
	note D#, 1
	note F#, 1
	note G#, 1
	note B_, 1
	octave 5
	note C#, 16
	octave 4
	note C#, 2
	note __, 12
	dutycycle $0
	intensity $d6
	vibrato $10, $11
	octave 3
	note G#, 1
	octave 4
	note C_, 1
	note C#, 6
	note C#, 1
	note F_, 1
	note G#, 1
	note __, 1
	note A#, 1
	note __, 1
	note G#, 1
	note __, 1
	note D#, 1
	note F_, 5
	note C#, 4
	octave 3
	note G#, 4
	octave 4
	note F_, 4
	note D#, 4
	note C#, 1
	note __, 1
	note C#, 4
	octave 3
	note F#, 4
	octave 4
	note C#, 14
	note C#, 2
	note C_, 2
	octave 3
	note A#, 6
	note F#, 6
	octave 4
	note C#, 4
	note C_, 6
	note C#, 4
	octave 3
	note G#, 2
	octave 4
	note C#, 2
	note D#, 1
	note __, 1
	note D#, 1
	note F_, 3
	octave 3
	note A#, 2
	octave 4
	note C#, 4
	note F_, 4
	note C#, 1
	note D#, 5
	note F_, 2
	note D#, 6
	note C#, 2
	note C_, 2
	note C#, 6
	note C#, 1
	note F_, 1
	note G#, 1
	note __, 1
	note A#, 1
	note __, 1
	note G#, 1
	note __, 1
	octave 5
	note C_, 1
	note C#, 5
	octave 4
	note A#, 2
	note G#, 2
	note F_, 2
	note C#, 2
	note D#, 2
	note __, 2
	note D#, 1
	note F_, 3
	note F#, 2
	note F_, 2
	note C#, 2
	octave 3
	note G#, 2
	octave 4
	note C_, 2
	note __, 2
	note C_, 1
	note C#, 3
	note C_, 2
	note C#, 2
	note C_, 4
	note C#, 2
	note C_, 2
	octave 3
	note A#, 6
	note A#, 1
	octave 4
	note D#, 1
	note F_, 1
	note __, 1
	octave 3
	note F_, 1
	note __, 1
	note A#, 1
	note __, 1
	note A#, 1
	octave 4
	note C_, 5
	note C_, 2
	note C#, 2
	note C_, 2
	octave 3
	note F_, 2
	octave 4
	note C_, 2
	note __, 2
	note C#, 4
	octave 3
	note A#, 1
	note __, 1
	note A#, 8
	octave 4
	note C_, 1
	note C#, 1
	note D#, 4
	note C_, 2
	note C#, 2
	note C_, 4
	note C#, 2
	note C_, 2
	octave 3
	note A#, 6
	loopchannel 0, Music_Bicycle_L2

Music_Bicycle_Ch3:
	notetype $c, $11
	note __, 12
	portadown $11
	octave 2
	note F_, 4
	portadown $0
Music_Bicycle_L3:
	forceoctave A# + $f
	callchannel Music_Bicycle_P5
	forceoctave G_ + $f
	callchannel Music_Bicycle_P5
	forceoctave F_ + $f
	callchannel Music_Bicycle_P5
	forceoctave C_ - 1
	octave 1
	note D#, 4
	octave 2
	note D#, 4
	octave 1
	note D#, 2
	note A#, 2
	note __, 2
	octave 2
	note D#, 2
	octave 1
	note F_, 4
	octave 2
	note F_, 4
	octave 1
	note F_, 2
	octave 2
	note C_, 2
	note __, 2
	note F_, 2
	loopchannel 2, Music_Bicycle_L3
	forceoctave C# - 1
	callchannel Music_Bicycle_P5
	forceoctave A# + $f
	callchannel Music_Bicycle_P5
	forceoctave F# + $f
	callchannel Music_Bicycle_P5
	forceoctave G# + $f
	callchannel Music_Bicycle_P5
	forceoctave C_ - 1
Music_Bicycle_L4:
	octave 2
	note D#, 2
	note __, 2
	note A#, 2
	note D#, 2
	note __, 2
	note D#, 2
	note G_, 2
	note A#, 2
	note F_, 2
	note __, 2
	octave 3
	note C_, 2
	octave 2
	note F_, 2
	note __, 2
	note F_, 2
	note A_, 2
	octave 3
	note C_, 2
	octave 2
	note A#, 2
	note __, 2
	octave 3
	note F_, 2
	octave 2
	note A#, 2
	note __, 2
	note A#, 2
	octave 3
	note D_, 2
	note F_, 2
	octave 2
	note A#, 2
	note __, 2
	octave 3
	note F_, 2
	octave 2
	note A#, 2
	note __, 2
	note A#, 2
	octave 3
	note D_, 2
	note F_, 2
	loopchannel 2, Music_Bicycle_L4
	octave 2
	forceoctave D# - 1
	callchannel Music_Bicycle_P6
	forceoctave F_ - 1
	callchannel Music_Bicycle_P6
	forceoctave A# - 1
	callchannel Music_Bicycle_P6
	callchannel Music_Bicycle_P6
	forceoctave D# - 1
	callchannel Music_Bicycle_P6
	forceoctave F_ - 1
	callchannel Music_Bicycle_P6
	forceoctave F# - 1
	callchannel Music_Bicycle_P6
	forceoctave G# - 1
	callchannel Music_Bicycle_P6
	forceoctave B_ + $f
	callchannel Music_Bicycle_P7
	forceoctave C# - 1
	callchannel Music_Bicycle_P7
	note C_, 16
	octave 2
	note C_, 2
	note __, 10
	portadown $f
	note G_, 4
	portadown $0
Music_Bicycle_L5:
	callchannel Music_Bicycle_P8
	forceoctave G# + $f
	callchannel Music_Bicycle_P8
	forceoctave A# + $f
	callchannel Music_Bicycle_P8
	forceoctave F# + $f
	callchannel Music_Bicycle_P8
	forceoctave D# + $f
	callchannel Music_Bicycle_P8
	forceoctave F_ + $f
	callchannel Music_Bicycle_P8
	forceoctave F# + $f
	callchannel Music_Bicycle_P8
	forceoctave G# + $f
	callchannel Music_Bicycle_P8
	forceoctave C# - 1
	loopchannel 2, Music_Bicycle_L5
	forceoctave C_ - 1
	loopchannel 0, Music_Bicycle_L3

Music_Bicycle_Ch4:
	notetype $c
	togglenoise $3
	note D#, 2
	note D#, 2
	note C_, 2
	note D#, 2
	note D#, 2
	note C_, 2
	note D#, 2
	note C_, 1
	note C_, 1
Music_Bicycle_L6:
	callchannel Music_Bicycle_P9
	loopchannel 12, Music_Bicycle_L6
Music_Bicycle_L7:
	note D#, 2
	note G_, 2
	note C_, 2
	note D#, 2
	note C_, 2
	note D#, 2
	note D#, 2
	note G_, 2
	note D#, 2
	note G_, 2
	note C_, 2
	note D#, 2
	note C_, 2
	note D#, 2
	note D#, 2
	note D#, 1
	note C_, 1
	loopchannel 4, Music_Bicycle_L7
Music_Bicycle_L8:
	note D#, 2
	note G_, 2
	note C_, 2
	note D#, 2
	note C_, 2
	note D#, 2
	note C_, 2
	note D#, 1
	note C_, 1
	loopchannel 8, Music_Bicycle_L8
	note D#, 2
	note G_, 2
Music_Bicycle_L9:
	note C_, 2
	note D#, 2
	loopchannel 6, Music_Bicycle_L9
	note C_, 1
	note C_, 1
	note C_, 1
	note C_, 1
	note B_, 16
	note D#, 4
	note D#, 4
	note D#, 2
	note D#, 2
	note C_, 1
	note C_, 1
	note C_, 1
	note C_, 1
Music_Bicycle_L10:
	callchannel Music_Bicycle_P9
	loopchannel 20, Music_Bicycle_L10
	loopchannel 0, Music_Bicycle_L7

Music_Bicycle_P1:
	arp $4, $7
	note A#, 4
	note A#, 2
	note A#, 4
	arp $2, $7
	note A#, 4
	arp $4, $7
	note A#, 4
	arp $2, $7
	note A#, 2
	arp $4, $7
	note A#, 4
	arp $5, $7
	note A#, 4
	arp $4, $7
	note A#, 4
	arp $4, $9
	note A#, 4
	note A#, 2
	note A#, 4
	arp $5, $a
	note A_, 4
	arp $4, $9
	note A#, 4
	arp $5, $a
	note A_, 2
	arp $4, $9
	note A#, 4
	arp $2, $7
	octave 4
	note C_, 4
	arp $4, $9
	octave 3
	note A#, 4
	endchannel

Music_Bicycle_P2:
	note G#, 6
	note G#, 1
	octave 4
	note C_, 1
	note C#, 1
	note __, 1
	octave 3
	note A#, 1
	note __, 1
	note G#, 1
	note __, 1
	octave 4
	note C_, 1
	note C#, 5
	octave 3
	note G#, 4
	note D#, 4
	octave 4
	note C#, 4
	octave 3
	note A#, 4
	note G#, 1
	note __, 1
	note G#, 4
	note A#, 4
	note G#, 14
	note F#, 2
	note F_, 2
	note F#, 6
	endchannel

Music_Bicycle_P3:
	note A_, 1
	note A#, 3
	note F_, 1
	note __, 1
	note F_, 4
	note D#, 4
	note D_, 4
	note D#, 4
	note F_, 4
	note A_, 2
	note A#, 2
	octave 4
	note C_, 1
	note __, 1
	note C_, 1
	note D_, 3
	note D_, 1
	note __, 1
	note D_, 4
	note D#, 4
	note C_, 1
	note D_, 13
	octave 3
	note A#, 2
	octave 4
	endchannel

Music_Bicycle_P4:
	note C#, 2
	note C_, 2
	octave 3
	note A#, 4
	note A#, 1
	note __, 1
	note A#, 6
	note F_, 4
	octave 4
	note C_, 4
	note C_, 1
	note __, 1
	note C_, 6
	octave 3
	note A#, 4
	octave 4
	endchannel

Music_Bicycle_P5:
	octave 2
	note C_, 4
	octave 3
	note C_, 4
	octave 2
	note C_, 2
	note G_, 2
	note __, 2
	octave 3
	note C_, 4
	octave 2
	note C_, 2
	octave 3
	note C_, 2
	note __, 2
	octave 2
	note C_, 2
	note G_, 2
	note __, 2
	octave 3
	note C_, 2
	endchannel

Music_Bicycle_P6:
	note C_, 4
	note G_, 2
	note C_, 2
	note G_, 2
	note C_, 2
	note E_, 2
	note G_, 2
	endchannel

Music_Bicycle_P7:
	octave 2
	note A#, 2
	octave 3
	note D_, 2
	note F_, 2
	note A#, 2
	octave 4
	note D_, 2
	octave 3
	note A#, 2
	note F_, 2
	note D_, 2
	endchannel

Music_Bicycle_P8:
	note C_, 2
	note __, 2
	note C_, 2
	octave 3
	note C_, 2
	note __, 2
	octave 2
	note C_, 2
	octave 3
	note C_, 2
	octave 2
	note C_, 2
	endchannel

Music_Bicycle_P9:
	note D#, 2
	note G_, 2
	note C_, 2
	note G_, 2
	note D#, 2
	note D#, 2
	note C_, 2
	note D#, 2
	note G_, 2
	note D#, 2
	note C_, 2
	note D#, 2
	note G_, 2
	note D#, 2
	note C_, 2
	note D#, 1
	note C_, 1
	endchannel
