Music_TitleScreen:
	channelcount 4
	channel 1, Music_TitleScreen_Ch1
	channel 2, Music_TitleScreen_Ch2
	channel 3, Music_TitleScreen_Ch3
	channel 4, Music_TitleScreen_Ch4

Music_TitleScreen_Ch1:
	tempo $85
	dutycycle $0
	notetype $c, $b1
	octave 6
	note G_, 2
	octave 5
	note B_, 2
	note D_, 2
	note B_, 2
	note D_, 2
	octave 4
	note G_, 2
	octave 5
	note D_, 2
	octave 4
	note G_, 2
	stereopanning $f0
	dutycycle $1
	intensity $d7
	vibrato $8, $23
	octave 3
	note G_, 6
	note D_, 6
	octave 4
	note C_, 4
	octave 3
	note B_, 6
	note A_, 6
	octave 4
	note C_, 4
	octave 3
	note B_, 6
	note A_, 6
	note G_, 4
	note D_, 8
	callchannel Music_TitleScreen_P1
	note G_, 16
	note F_, 16
	note E_, 16
	note F_, 16
	note G_, 16
	note F_, 16
	note E_, 16
	note D_, 8
	callchannel Music_TitleScreen_P1
	callchannel Music_TitleScreen_P2
	note C_, 3
	octave 3
	note B_, 3
	octave 4
	note C_, 2
	note D_, 16
	octave 2
	note A_, 16
	callchannel Music_TitleScreen_P2
	note F_, 3
	note E_, 3
	note F_, 2
	note G_, 6
	note A#, 2
	note G_, 8
	octave 3
	note G_, 8
	octave 4
	note A_, 8
	note A#, 6
	note F_, 6
	note D#, 4
	note D_, 8
	note E_, 4
	note F_, 4
	note G_, 6
	note D_, 2
	note D_, 4
	note C_, 4
	octave 3
	note A#, 4
	note A_, 4
	note G_, 6
	note A_, 1
	note A#, 1
	octave 4
	note C_, 14
	octave 3
	note A#, 1
	octave 4
	note C_, 1
	note D_, 14
	note C_, 1
	note D_, 1
	note D#, 14
	note D_, 1
	note D#, 1
	note F_, 8
	octave 3
	note B_, 1
	octave 4
	callchannel Music_TitleScreen_P3
	note G_, 6
	note D_, 6
	note G_, 4
	note F_, 6
	note A_, 6
	octave 5
	note C_, 4
	octave 4
	note B_, 4
	note A_, 2
	note G_, 4
	note E_, 2
	note D_, 4
	callchannel Music_TitleScreen_P4
	note G_, 6
	note D_, 6
	note G_, 4
	note F_, 6
	note A_, 2
	octave 5
	note C_, 3
	octave 4
	note B_, 3
	octave 5
	note C_, 2
	note D_, 4
	octave 4
	note A_, 2
	note B_, 10
	callchannel Music_TitleScreen_P4
	note G_, 6
	note D_, 6
	octave 5
	note D_, 4
	note C_, 6
	octave 4
	note F_, 6
	octave 5
	note C_, 4
	octave 4
	note B_, 4
	octave 5
	note C_, 2
	octave 4
	note B_, 10
	callchannel Music_TitleScreen_P4
	note G_, 6
	note D_, 6
	note G_, 4
	note F_, 6
	note E_, 2
	note F_, 3
	note E_, 3
	note C_, 2
	note D_, 6
	note F_, 2
	note D_, 8
	dutycycle $0
	notetype $8, $b1
Music_TitleScreen_L1:
	note G_, 2
	note B_, 2
	octave 5
	note D_, 2
	note G_, 2
	note D_, 2
	octave 4
	note B_, 2
	loopchannel 2, Music_TitleScreen_L1
	dutycycle $1
	notetype $c, $d7
	vibrato $8, $23
	octave 3
	note G_, 16
	note D_, 16
	note G_, 16
	octave 4
	note D_, 16
	note D_, 4
	note F_, 4
	note E_, 4
	note C_, 4
	note D_, 4
	octave 3
	note B_, 4
	note A_, 4
	octave 4
	note C_, 4
	octave 3
	note B_, 4
	note G_, 4
	note A_, 4
	note F_, 4
	note G_, 4
	note D_, 4
	note E_, 4
	note F_, 4
	note G_, 4
	note __, 4
	note G_, 4
	note __, 4
	octave 2
	note G_, 16
	endchannel

Music_TitleScreen_Ch2:
	dutycycle $0
	notetype $c, $b1
	note __, 1
	octave 5
	note G_, 2
	octave 6
	note D_, 2
	octave 5
	note G_, 2
	octave 4
	note B_, 2
	octave 5
	note G_, 2
	octave 4
	note B_, 2
	note D_, 2
	note B_, 1
	stereopanning $f
	dutycycle $3
	intensity $d7
	vibrato $8, $23
	octave 3
	note D_, 16
	note C_, 16
	note E_, 16
	note G_, 8
	note G_, 4
	note A_, 4
	note B_, 16
	note A_, 16
	note B_, 16
	octave 4
	note D_, 16
	note G_, 16
	note F_, 16
	note E_, 16
	note D_, 16
	callchannel Music_TitleScreen_P5
	note D_, 8
	note C_, 3
	octave 2
	note B_, 3
	octave 3
	note C_, 2
	note D_, 8
	note C_, 3
	note C_, 3
	octave 2
	note B_, 2
	callchannel Music_TitleScreen_P5
	note D_, 6
	note F_, 2
	note D_, 8
	note E_, 8
	octave 4
	note E_, 8
	octave 3
	note F_, 6
	octave 4
	note C_, 2
	note D_, 8
	octave 3
	note F_, 6
	octave 4
	note C_, 2
	note D_, 8
	octave 3
	note D_, 6
	note A_, 2
	note A#, 8
	note D_, 6
	note F_, 2
	note A#, 8
	dutycycle $2
	intensity $c2
	vibrato $0, $0
Music_TitleScreen_L2:
	note C_, 1
	note F_, 1
	note A_, 1
	note A#, 1
	loopchannel 4, Music_TitleScreen_L2
Music_TitleScreen_L3:
	note D_, 1
	note G_, 1
	note A_, 1
	note A#, 1
	loopchannel 4, Music_TitleScreen_L3
Music_TitleScreen_L4:
	octave 3
	note D#, 1
	note A_, 1
	octave 4
	note D_, 1
	note D#, 1
	loopchannel 4, Music_TitleScreen_L4
Music_TitleScreen_L5:
	octave 3
	note F_, 1
	note A_, 1
	octave 4
	note C_, 1
	note F_, 1
	loopchannel 3, Music_TitleScreen_L5
	note A_, 1
	note F_, 1
	note C_, 1
	octave 3
	note A_, 1
	dutycycle $3
	intensity $d7
	vibrato $8, $23
	note G_, 6
	note B_, 2
	octave 4
	note D_, 8
	note C_, 6
	octave 3
	note A_, 6
	octave 4
	note C_, 4
	octave 3
	note B_, 4
	octave 4
	note C_, 2
	note D_, 10
	callchannel Music_TitleScreen_P6
	octave 4
	note D_, 8
	note C_, 6
	note E_, 2
	note F_, 3
	note E_, 3
	note C_, 2
	note D_, 6
	note F_, 2
	note D_, 8
	callchannel Music_TitleScreen_P6
	octave 4
	note G_, 8
	note C_, 6
	note A_, 6
	note C_, 4
	octave 3
	note B_, 4
	octave 4
	note D_, 2
	note G_, 10
	callchannel Music_TitleScreen_P6
	octave 4
	note D_, 8
	note C_, 6
	note A_, 2
	note A#, 3
	note A_, 3
	note F_, 2
	note G_, 6
	note A#, 2
	note G_, 8
	notetype $8, $d3
	octave 3
	note G_, 2
	note G_, 2
	note G_, 2
	note G_, 2
	note G_, 2
	note G_, 2
	note A_, 2
	note A_, 2
	note A_, 2
	notetype $c, $d3
	octave 4
	note C_, 1
	note D_, 1
	note E_, 1
	note F_, 1
	intensity $d6
Music_TitleScreen_L6:
	note G_, 4
	note G_, 6
	intensity $d3
	note G_, 1
	note G_, 1
	intensity $d6
	note G_, 4
	note G_, 4
	note G_, 4
	note F_, 3
	note F_, 3
	note F#, 2
	loopchannel 4, Music_TitleScreen_L6
	note G_, 4
	note __, 4
	note G_, 4
	note __, 4
	intensity $d7
	octave 3
	note G_, 16
	endchannel

Music_TitleScreen_Ch3:
	notetype $c, $14
	note __, 12
	portadown $e
	octave 3
	note G_, 4
	portadown 0
	octave 2
	note G_, 16
	note F_, 12
	toneporta $f
	octave 3
	note G_, 16
	note G_, 8
	toneporta 0
	note __, 4
	note G_, 4
	note A_, 4
	rept 4
	callchannel Music_TitleScreen_P7
	endr
	octave 2
Music_TitleScreen_L7:
	callchannel Music_TitleScreen_P8
	callchannel Music_TitleScreen_P9
	note E_, 2
	note __, 1
	note E_, 1
	octave 3
	note E_, 2
	octave 2
	note E_, 1
	octave 3
	note E_, 1
	note __, 2
	octave 2
	note E_, 2
	octave 3
	note E_, 2
	octave 2
	note E_, 2
	note D_, 2
	note __, 1
	note D_, 1
	octave 3
	note D_, 2
	octave 2
	note D_, 1
	octave 3
	note D_, 1
	note __, 2
	octave 2
	note D_, 2
	octave 3
	note D_, 2
	octave 2
	note D_, 2
	loopchannel 3, Music_TitleScreen_L7
	callchannel Music_TitleScreen_P8
	callchannel Music_TitleScreen_P9
	callchannel Music_TitleScreen_P8
	note A_, 2
	note __, 1
	note A_, 1
	octave 3
	note A_, 2
	octave 2
	note A_, 1
	octave 3
	note A_, 1
	note __, 2
	octave 2
	note A_, 2
	octave 3
	note A_, 2
	octave 2
	note A_, 2
	note A#, 16
	note F_, 16
	note G_, 16
	note D_, 16
	note C_, 2
	note __, 2
	note C_, 2
	note __, 2
	note C_, 2
	note __, 2
	note C_, 2
	octave 3
	note C_, 2
	octave 2
	note D_, 2
	note __, 2
	note D_, 2
	note __, 2
	note D_, 2
	note __, 2
	note D_, 2
	octave 3
	note D_, 2
	octave 2
	note D#, 2
	note __, 2
	note D#, 2
	note __, 2
	note D#, 2
	note __, 2
	note D#, 2
	octave 3
	note D#, 2
	octave 2
	note F_, 2
	note __, 2
	note F_, 2
	note __, 2
	note F_, 2
	note __, 2
	note F_, 2
	octave 3
	note F_, 2
Music_TitleScreen_L8:
	octave 2
	callchannel Music_TitleScreen_P10
	callchannel Music_TitleScreen_P11
	note E_, 2
	octave 1
	note B_, 2
	octave 3
	note E_, 2
	octave 2
	note B_, 2
	note E_, 2
	octave 1
	note B_, 2
	octave 3
	note E_, 1
	octave 2
	note B_, 1
	note __, 1
	note E_, 1
	note F_, 2
	note C_, 2
	octave 3
	note F_, 2
	note C_, 2
	octave 2
	note F_, 2
	note C_, 2
	octave 3
	note F_, 2
	note C_, 2
	loopchannel 3, Music_TitleScreen_L8
	octave 2
	callchannel Music_TitleScreen_P10
	callchannel Music_TitleScreen_P11
	callchannel Music_TitleScreen_P10
	note G_, 2
	note D_, 2
	octave 3
	note G_, 2
	note D_, 2
	octave 2
	note G_, 2
	note D_, 2
	octave 3
	note G_, 2
	note D_, 2
	octave 2
Music_TitleScreen_L9:
	note G_, 2
	note __, 2
	note G_, 4
	note __, 2
	note G_, 4
	note __, 2
	note G_, 2
	note __, 2
	note G_, 2
	note __, 2
	note F_, 2
	note __, 1
	note F_, 2
	note __, 1
	note F#, 2
	loopchannel 4, Music_TitleScreen_L9
	note G_, 4
	note __, 4
	note G_, 4
	note __, 4
	octave 1
	note G_, 16
	endchannel

Music_TitleScreen_Ch4:
	notetype $c
	togglenoise $3
	note __, 12
	note B_, 4
Music_TitleScreen_L10:
	note C#, 2
	note G_, 2
	note C#, 2
	note G_, 2
	note G#, 2
	note G_, 2
	note G#, 1
	note G#, 1
	note G#, 1
	note G#, 1
	loopchannel 3, Music_TitleScreen_L10
	note C#, 2
	note G_, 2
	note D#, 2
	note G_, 2
	note D#, 1
	note D#, 1
	note D#, 1
	note D#, 1
	note C_, 1
	note C_, 1
	note C_, 1
	note C_, 1
Music_TitleScreen_L11:
	callchannel Music_TitleScreen_P12
	note D#, 2
	note G_, 2
	note D#, 2
	note G_, 2
	note D#, 2
	note G#, 2
	note D#, 2
	note G#, 1
	note G#, 1
	loopchannel 3, Music_TitleScreen_L11
	callchannel Music_TitleScreen_P12
	note D#, 2
	note D#, 2
	note D#, 2
	note D#, 2
	note D#, 1
	note D#, 1
	note D#, 1
	note D#, 1
	note C_, 1
	note C_, 1
	note C_, 1
	note C_, 1
Music_TitleScreen_L12:
	callchannel Music_TitleScreen_P13
	note C_, 2
	note D#, 2
	loopchannel 15, Music_TitleScreen_L12
	callchannel Music_TitleScreen_P13
	note C_, 1
	note C_, 1
	note C_, 1
	note C_, 1
	note B_, 8
	note G_, 8
	note G_, 8
	note G_, 8
	note G_, 8
	note G_, 8
	note G_, 4
	note G_, 4
	note G_, 2
	note G#, 2
	note G#, 1
	note G#, 1
	note G#, 1
	note G#, 1
Music_TitleScreen_L13:
	note D#, 2
	note G_, 2
	note D#, 2
	note G_, 2
	note D#, 2
	note G_, 2
	note D#, 1
	note G_, 1
	note G_, 1
	note G_, 1
	loopchannel 3, Music_TitleScreen_L13
	note D#, 2
	note G#, 2
	note D#, 2
	note G#, 2
	note D#, 1
	note D#, 1
	note D#, 1
	note D#, 1
	note C_, 1
	note C_, 1
	note C_, 1
	note C_, 1
Music_TitleScreen_L14:
	callchannel Music_TitleScreen_P14
	callchannel Music_TitleScreen_P14
	callchannel Music_TitleScreen_P14
	note D#, 1
	note G_, 1
	note G#, 1
	note G_, 1
	note D#, 1
	note G_, 1
	note G#, 1
	note G_, 1
	note D#, 1
	note G_, 1
	note D#, 1
	note G_, 1
	note D#, 1
	note C_, 1
	note G_, 1
	note C_, 1
	loopchannel 3, Music_TitleScreen_L14
	callchannel Music_TitleScreen_P14
	callchannel Music_TitleScreen_P14
	callchannel Music_TitleScreen_P14
	note D#, 1
	note G_, 1
	note G#, 1
	note G_, 1
	note D#, 1
	note G_, 1
	note G#, 1
	note G_, 1
	note D#, 1
	note D#, 1
	note D#, 1
	note D#, 1
	note C_, 1
	note C_, 1
	note C_, 1
	note C_, 1
Music_TitleScreen_L15:
	note D#, 4
	note C_, 6
	note D#, 1
	note D#, 1
	note C_, 4
	note D#, 4
	note C_, 4
	note D#, 1
	note G_, 1
	note C_, 1
	note D#, 1
	note G_, 1
	note C_, 1
	note D#, 1
	note G_, 1
	loopchannel 4, Music_TitleScreen_L15
	note C_, 8
	note C_, 8
	note B_, 16
	endchannel

Music_TitleScreen_P1:
	octave 2
	note B_, 1
	octave 3
Music_TitleScreen_P3:
	note C_, 1
	note D_, 1
	note E_, 1
	note C_, 1
	note D_, 1
	note E_, 1
	note F#, 1
	endchannel

Music_TitleScreen_P2:
	octave 3
	note G_, 6
	note B_, 2
	octave 4
	note D_, 8
	octave 3
	note F_, 6
	note B_, 2
	octave 4
	note F_, 6
	note E_, 1
	note D#, 1
	note D_, 16
	octave 2
	note A_, 16
	octave 3
	note G_, 6
	note B_, 2
	octave 4
	note D_, 8
	octave 3
	note F_, 8
	octave 4
	endchannel

Music_TitleScreen_P4:
	dutycycle $0
	notetype $8, $b1
	vibrato $1, $13
	note E_, 2
	note G_, 2
	note B_, 2
	octave 5
	note E_, 2
	octave 4
	note B_, 2
	note G_, 2
	note F_, 2
	note A_, 2
	octave 5
	note C_, 2
	note F_, 2
	note C_, 2
	octave 4
	note A_, 2
	dutycycle $1
	notetype $c, $d7
	vibrato $8, $23
	endchannel

Music_TitleScreen_P5:
	octave 3
	note D_, 10
	note D_, 2
	octave 2
	note B_, 2
	note G_, 2
	octave 3
	note C_, 10
	note C_, 2
	octave 2
	note A_, 2
	note F_, 2
	note B_, 6
	octave 3
	note D#, 1
	note E_, 1
	note F_, 6
	note E_, 1
	note D#, 1
	note D_, 8
	note C_, 3
	octave 2
	note B_, 3
	octave 3
	note C_, 2
	note D_, 10
	note D_, 2
	octave 2
	note B_, 2
	note G_, 2
	octave 3
	note C_, 6
	note E_, 2
	note F_, 3
	note E_, 3
	note C_, 2
	endchannel

Music_TitleScreen_P6:
	notetype $8, $d3
	octave 3
	note G_, 2
	note G_, 2
	note G_, 2
	note G_, 2
	note G_, 2
	note G_, 2
	note A_, 2
	note A_, 2
	note A_, 2
	octave 4
	note C_, 2
	note C_, 2
	note C_, 2
	notetype $c, $d7
	octave 3
	note G_, 6
	note B_, 2
	endchannel

Music_TitleScreen_P7:
	octave 2
	note G_, 1
	note B_, 1
	octave 3
	note D_, 1
	note G_, 1
	loopchannel 4, Music_TitleScreen_P7
.loop2
	octave 2
	note F_, 1
	note A_, 1
	octave 3
	note C_, 1
	note F_, 1
	loopchannel 4, .loop2
	endchannel

Music_TitleScreen_P8:
	note G_, 2
	note __, 1
	note G_, 1
	octave 3
	note G_, 2
	octave 2
	note G_, 1
	octave 3
	note G_, 1
	note __, 2
	octave 2
	note G_, 2
	octave 3
	note G_, 2
	octave 2
	note G_, 2
	endchannel

Music_TitleScreen_P9:
	note F_, 2
	note __, 1
	note F_, 1
	octave 3
	note F_, 2
	octave 2
	note F_, 1
	octave 3
	note F_, 1
	note __, 2
	octave 2
	note F_, 2
	octave 3
	note F_, 2
	octave 2
	note F_, 2
	endchannel

Music_TitleScreen_P10:
	note G_, 2
	note D_, 2
	octave 3
	note G_, 2
	note D_, 2
	octave 2
	note G_, 2
	note D_, 2
	octave 3
	note G_, 1
	note D_, 1
	note __, 1
	octave 2
	note G_, 1
	endchannel

Music_TitleScreen_P11:
	note F_, 2
	note C_, 2
	octave 3
	note F_, 2
	note C_, 2
	octave 2
	note F_, 2
	note C_, 2
	octave 3
	note F_, 1
	note C_, 1
	note __, 1
	octave 2
	note F_, 1
	endchannel

Music_TitleScreen_P12:
	note D#, 2
	note G_, 2
	note D#, 2
	note G_, 2
	note D#, 2
	note G#, 2
	note D#, 2
	note G#, 2
	endchannel

Music_TitleScreen_P13:
	note D#, 2
	note G_, 2
	note C_, 2
	note G#, 1
	note G#, 1
	note D#, 2
	note D#, 2
	endchannel

Music_TitleScreen_P14:
	note D#, 1
	note G_, 1
	note G_, 1
	note G_, 1
	note C_, 1
	note G_, 1
	note G#, 1
	note G#, 1
	note D#, 1
	note G_, 1
	note D#, 1
	note G_, 1
	note C_, 1
	note D#, 1
	note G_, 1
	note C_, 1
	endchannel
