; Notes library. Used across 3 Hoenn battle themes

Music_LibHoennBattle_1:
	octave 5
.loop
	note G_, 1
	note F#, 1
	note G_, 2
	loopchannel 8, .loop
	endchannel

Music_LibHoennBattle_2:
	dutycycle $1
	notetype $c, $c7
	octave 5
	note C_, 1
	octave 4
	note B_, 1
	note A#, 1
	note A_, 1
	note A#, 1
	note A_, 1
	note G#, 1
	note G_, 1
	note G#, 1
	note G_, 1
	note F#, 1
	note F_, 1
	note F#, 1
	note F_, 1
	note E_, 1
	note D#, 1
	note E_, 1
	note D#, 1
	note D_, 1
	note C#, 1
	note D_, 1
	note C#, 1
	note C_, 1
	octave 3
	note B_, 1
	octave 4
	note C_, 1
	octave 3
	note B_, 1
	note A#, 1
	note A_, 1
	note A#, 1
	note A_, 1
	endchannel

Music_LibHoennBattle_3:
	note C_, 2
	note F#, 2
	note F_, 2
	note D#, 2
	note F_, 2
	note D#, 2
	note D#, 2
	note F_, 2
	note C_, 2
	note F#, 2
	note F_, 2
	note D#, 2
	note F_, 2
	note D#, 2
	note D#, 2
	note C#, 2
	endchannel

Music_LibHoennBattle_4:
	octave 4
	note C_, 2
	note __, 4
	note C#, 2
	note __, 4
	octave 3
	note C_, 2
	note __, 2
	note G_, 2
	note __, 4
	note G#, 2
	note __, 4
	note C#, 4
	octave 4
	note C_, 2
	note __, 4
	note C#, 2
	note __, 4
	octave 3
	note C_, 2
	note __, 2
	note G_, 2
	note __, 4
	note G#, 2
	note __, 4
	octave 4
	note C#, 4
	endchannel

Music_LibHoennBattle_5:
	octave 4
	note G_, 2
	note __, 4
	note G#, 2
	note __, 4
	octave 3
	note G_, 2
	note __, 2
	octave 4
	note E_, 2
	note __, 4
	note F_, 2
	note __, 4
	endchannel

Music_LibHoennBattle_3rd_4:
	note C_, 2
	note E_, 2
	note C_, 2
	note E_, 2
	note C_, 2
	note E_, 2
	note C_, 2
	note E_, 2
	endchannel

Music_LibHoennBattle_4th_8:
	note C_, 2
	note F_, 2
Music_LibHoennBattle_4th_7:
	note C_, 2
	note F_, 2
Music_LibHoennBattle_4th_6:
	note C_, 2
	note F_, 2
	note C_, 2
	note F_, 2
Music_LibHoennBattle_4th_4:
	note C_, 2
	note F_, 2
	note C_, 2
	note F_, 2
	note C_, 2
	note F_, 2
	note C_, 2
	note F_, 2
	endchannel

Music_LibHoennBattle_5th_8:
	note C_, 2
	note G_, 2
Music_LibHoennBattle_5th_7:
	note C_, 2
	note G_, 2
Music_LibHoennBattle_5th_6:
	note C_, 2
	note G_, 2
Music_LibHoennBattle_5th_5:
	note C_, 2
	note G_, 2
Music_LibHoennBattle_5th_4:
	note C_, 2
	note G_, 2
	note C_, 2
	note G_, 2
	note C_, 2
	note G_, 2
	note C_, 2
	note G_, 2
	endchannel
