Music_HoennTrainerBattle:
	channelcount 3
	channel 1, Music_HoennTrainerBattle_Ch1
	channel 2, Music_HoennTrainerBattle_Ch2
	channel 3, Music_HoennTrainerBattle_Ch3

Music_HoennTrainerBattle_Ch1:
	tempo $60
	dutycycle $3
	notetype $c, $c4
	vibrato $11, $12
	callchannel Music_LibHoennBattle_1
	octave 2
	note G_, 6
	note A#, 6
	note G#, 4
	note G_, 2
	note G#, 4
	note A#, 6
	note C#, 4
	note G_, 6
	note A#, 6
	note G#, 4
	note G_, 2
	note G#, 4
	note A#, 6
	octave 3
	note C#, 4
	dutycycle $0
	intensity $a2
	vibrato $0, $0
	note G_, 2
	note C_, 2
	note F_, 2
	note A#, 2
	note G_, 2
	note C#, 2
	note G#, 2
	note C_, 2
	note G_, 2
	note C#, 2
	note F_, 2
	note A#, 2
	note C_, 2
	note G_, 2
	note C#, 2
	note F_, 2
	note G_, 2
	note C_, 2
	note F_, 2
	note A#, 2
	note G_, 2
	note C#, 2
	note G#, 2
	note C_, 2
	note G_, 2
	note C#, 2
	note F_, 2
	note A#, 2
	note F_, 2
	octave 4
	note C_, 2
	note C#, 4
	intensity $c7
Music_HoennTrainerBattle_L1:
	dutycycle $3
	vibrato $11, $12
	octave 3
	callchannel Music_HoennTrainerBattle_P1
	note E_, 2
	note A#, 2
	octave 4
	note C_, 2
	note C#, 16
	note C#, 8
	octave 3
	note A#, 8
	callchannel Music_HoennTrainerBattle_P1
	note D_, 2
	note A#, 2
	octave 4
	note C_, 2
	note C#, 12
	note C#, 2
	note C_, 2
	note C#, 8
	note D#, 8
	note C_, 6
	octave 3
	note A#, 6
	octave 4
	note D_, 4
	note C_, 16
	octave 2
	note E_, 8
	note F_, 6
	note A_, 2
	note A#, 6
	octave 3
	note D_, 6
	octave 2
	note B_, 4
	octave 3
	note C_, 6
	octave 2
	note G_, 6
	note F_, 4
	note E_, 16
	note E_, 8
	note F_, 8
	note A#, 6
	note F_, 4
	octave 3
	note D_, 2
	octave 2
	note A#, 2
	note A_, 2
	octave 3
	note C_, 12
	note C_, 4
	note E_, 16
	note C_, 14
	note E_, 2
	note F_, 16
	note F_, 12
	note E_, 2
	note D_, 2
	note E_, 14
	note F_, 2
	note G_, 12
	note A#, 2
	note A_, 2
	note A#, 16
	note F_, 12
	note E_, 2
	note F_, 2
	note G_, 16
	octave 4
	note C_, 14
	note E_, 2
	note F_, 16
	note F_, 12
	note E_, 2
	note D_, 2
	note E_, 16
	octave 5
	note C_, 8
	octave 3
	note C_, 8
	note G_, 8
	note C#, 8
	octave 4
	note C_, 8
	octave 2
	note C_, 8
	octave 3
	note G_, 8
	octave 2
	note C#, 8
	note __, 16
	note __, 16
	note __, 16
	note __, 16
	note __, 16
	note __, 16
	dutycycle $2
	intensity $b7
	vibrato $0, $0
	octave 1
	note F_, 16
	note A#, 16
	octave 2
	note D_, 16
	note F_, 14
	dutycycle $3
	intensity $c7
	vibrato $11, $12
	octave 3
	note A#, 2
	octave 4
	intensity $c8
	vibrato $0, $0
	note C_, 16
	note C_, 16
	octave 3
	note C_, 16
	intensity $c7
	vibrato $11, $12
	note C_, 16
	dutycycle $0
	intensity $a2
	vibrato $0, $0
	octave 4
	callchannel Music_HoennTrainerBattle_P2
	callchannel Music_HoennTrainerBattle_P2
	dutycycle $2
	intensity $b7
	forceoctave $10
	callchannel Music_LibHoennBattle_5
	octave 3
	note A#, 4
	callchannel Music_LibHoennBattle_5
	note G#, 4
	forceoctave 0
	dutycycle $1
	intensity $c7
	callchannel Music_LibHoennBattle_5
	octave 3
	note G_, 4
	octave 4
	note G_, 2
	note __, 4
	note G#, 2
	note __, 4
	note C_, 4
	note G_, 2
	note __, 4
	note G#, 2
	note __, 4
	note F_, 4
	loopchannel 0, Music_HoennTrainerBattle_L1

Music_HoennTrainerBattle_Ch2:
	callchannel Music_LibHoennBattle_2
	note A#, 1
	note B_, 1
	note C_, 6
	note D#, 6
	note C#, 4
	note C_, 2
	note C#, 4
	note D#, 6
	octave 2
	note G#, 4
	octave 3
	note C_, 6
	note D#, 6
	note C#, 4
	note C_, 2
	note C#, 4
	note D#, 6
	note G#, 4
	octave 4
	note C_, 6
	note D#, 6
	note C#, 4
	note C_, 2
	note C#, 4
	note D#, 6
	note C#, 4
	note C_, 6
	note D#, 6
	note C#, 4
	note C_, 2
	note C#, 4
	note D#, 6
	note G_, 4
Music_HoennTrainerBattle_L2:
	vibrato $11, $12
	note C_, 8
	octave 3
	note A#, 8
	octave 4
	note D_, 6
	octave 3
	note G_, 4
	note G_, 2
	octave 4
	note D_, 2
	note G_, 2
	note G#, 12
	note G#, 2
	note G_, 2
	note F_, 8
	note C#, 8
	dutycycle $0
	vibrato $9, $12
	note C_, 8
	octave 3
	note A#, 7
	octave 4
	note C_, 1
	note D_, 6
	octave 3
	note G_, 4
	note G_, 2
	octave 4
	note D_, 2
	note G_, 2
	note G#, 12
	note G#, 2
	note G_, 2
	note A#, 6
	note G#, 4
	note G_, 2
	note F_, 2
	note G#, 2
	note G_, 10
	note F_, 2
	note G_, 2
	note F_, 2
	note E_, 16
	dutycycle $1
	vibrato $11, $12
	octave 2
	note A#, 8
	octave 3
	note D_, 8
	note F_, 6
	note A#, 4
	note A_, 2
	note G_, 2
	note F_, 2
	note E_, 12
	note C_, 4
	note G_, 16
	octave 2
	note A#, 8
	octave 3
	note D_, 8
	note F_, 6
	note A#, 4
	note F_, 2
	note A#, 2
	octave 4
	note D_, 2
	note E_, 12
	note G_, 4
	octave 5
	note C_, 16
	dutycycle $2
	intensity $b7
	vibrato $0, $0
	forceoctave $10
	callchannel Music_HoennTrainerBattle_P3
	note E_, 8
	note C_, 8
	note C_, 6
	note G_, 6
	note F_, 2
	note E_, 2
	note D_, 6
	note A#, 10
	callchannel Music_HoennTrainerBattle_P4
	note E_, 6
	note C_, 10
	intensity $b5
	forceoctave 0
	callchannel Music_HoennTrainerBattle_P3
	note E_, 6
	note C_, 6
	note G_, 4
	callchannel Music_HoennTrainerBattle_P5
	forceoctave $10
	callchannel Music_HoennTrainerBattle_P5
	intensity $b7
	note C_, 16
	forceoctave 0
	octave 2
	note C_, 14
	octave 3
	note C_, 2
	note C#, 16
	octave 2
	note C#, 14
	octave 3
	note C#, 2
	note C_, 16
	octave 2
	note C_, 14
	octave 3
	note C_, 2
	octave 2
	note A#, 16
	octave 3
	note D_, 16
	note F_, 16
	note A#, 14
	dutycycle $1
	intensity $c7
	octave 4
	note D_, 2
	intensity $c8
	note E_, 16
	note E_, 16
	octave 3
	note E_, 16
	intensity $c7
	note E_, 16
	dutycycle $2
	intensity $b7
	note C_, 4
	note F_, 6
	note G_, 6
	note A#, 8
	note A_, 8
	note G_, 6
	note F_, 2
	note E_, 2
	note D_, 2
	note E_, 2
	note F_, 2
	note G_, 16
	dutycycle $0
	intensity $c7
	vibrato $9, $12
	note C_, 4
	note F_, 6
	note G_, 6
	octave 4
	note C_, 8
	note D_, 8
	note E_, 6
	note D_, 2
	note C_, 2
	octave 3
	note A#, 2
	note A_, 2
	note G_, 2
	octave 4
	note C_, 16
	dutycycle $2
	intensity $b7
	vibrato $0, $0
	forceoctave $10
	callchannel Music_LibHoennBattle_4
	forceoctave 0
	dutycycle $1
	intensity $c7
	octave 4
	note C_, 2
	note __, 4
	note C#, 2
	note __, 4
	octave 3
	note C_, 2
	note __, 2
	note G_, 2
	note __, 4
	note G#, 2
	note __, 4
	note C#, 4
	octave 4
	note C_, 2
	note __, 4
	note C#, 2
	note __, 4
	octave 3
	note G_, 4
	octave 4
	note C_, 2
	note __, 4
	note C#, 2
	note __, 4
	octave 3
	note A#, 4
	octave 4
	loopchannel 0, Music_HoennTrainerBattle_L2

Music_HoennTrainerBattle_Ch3:
	notetype $c, $19
	octave 3
	note C_, 16
	note C#, 10
	note C#, 2
	note D#, 2
	note C#, 2
Music_HoennTrainerBattle_L3:
	callchannel Music_LibHoennBattle_3
	loopchannel 4, Music_HoennTrainerBattle_L3
Music_HoennTrainerBattle_L4:
	callchannel Music_LibHoennBattle_5th_6
	note C_, 2
	octave 4
	note C_, 2
	octave 3
	note G_, 2
	note E_, 2
	forceoctave C# - 1
	callchannel Music_LibHoennBattle_5th_6
	note C_, 2
	note C_, 2
	note G_, 2
	note E_, 2
	forceoctave C_ - 1
	callchannel Music_LibHoennBattle_5th_5
	octave 4
	note C_, 2
	octave 3
	note G_, 2
	note E_, 2
	note G_, 2
	note E_, 2
	note G_, 2
	forceoctave C# - 1
	callchannel Music_LibHoennBattle_5th_8
	forceoctave C_ - 1
	callchannel Music_LibHoennBattle_5th_8
	forceoctave A# + $f
	callchannel Music_LibHoennBattle_5th_8
	forceoctave C_ - 1
	callchannel Music_LibHoennBattle_5th_8
	forceoctave A# + $f
	callchannel Music_LibHoennBattle_5th_8
	forceoctave C_ - 1
	callchannel Music_LibHoennBattle_5th_8
	callchannel Music_LibHoennBattle_3rd_4
	callchannel Music_LibHoennBattle_4th_8
	callchannel Music_LibHoennBattle_5th_8
	note C_, 2
	note A#, 2
	note C_, 2
	note A#, 2
	note C_, 2
	note A#, 2
	note C_, 2
	note A#, 2
	callchannel Music_LibHoennBattle_4th_4
	callchannel Music_LibHoennBattle_3rd_4
	callchannel Music_LibHoennBattle_3rd_4
	callchannel Music_LibHoennBattle_4th_8
	callchannel Music_LibHoennBattle_3rd_4
	callchannel Music_LibHoennBattle_5th_8
	callchannel Music_LibHoennBattle_5th_8
	callchannel Music_LibHoennBattle_5th_8
	forceoctave C# - 1
	callchannel Music_LibHoennBattle_5th_8
	forceoctave C_ - 1
	callchannel Music_LibHoennBattle_5th_8
	forceoctave A# + $f
	callchannel Music_LibHoennBattle_5th_8
	callchannel Music_LibHoennBattle_5th_8
	forceoctave C_ - 1
Music_HoennTrainerBattle_L5:
	note C_, 2
	octave 4
	note C_, 2
	octave 3
	loopchannel 8, Music_HoennTrainerBattle_L5
	callchannel Music_LibHoennBattle_5th_5
	octave 4
	note C_, 2
	octave 3
	note G_, 2
	octave 4
	note C_, 2
	octave 3
	note G_, 2
	note F_, 2
	note G_, 2
	forceoctave F_ - 1
	callchannel Music_LibHoennBattle_4th_8
	forceoctave C_ - 1
	callchannel Music_LibHoennBattle_5th_8
	forceoctave F_ - 1
	callchannel Music_LibHoennBattle_4th_8
	forceoctave C_ - 1
	callchannel Music_LibHoennBattle_5th_8
Music_HoennTrainerBattle_L6:
	callchannel Music_LibHoennBattle_3
	loopchannel 3, Music_HoennTrainerBattle_L6
	note C_, 2
	note F#, 2
	note F_, 2
	note D#, 2
	note F_, 2
	note D#, 2
	note D#, 2
	note F_, 2
	note C_, 2
	note F#, 2
	note F_, 2
	note D#, 2
	note G_, 2
	note C#, 2
	note D#, 2
	note C#, 2
	loopchannel 0, Music_HoennTrainerBattle_L4

Music_HoennTrainerBattle_P1:
	note C_, 6
	note G_, 6
	note F_, 4
	note E_, 2
	note F_, 2
	note E_, 2
	note D_, 2
	note C_, 2
	endchannel

Music_HoennTrainerBattle_P2:
	note F_, 2
	note C_, 2
	note F_, 2
	note A_, 2
	octave 5
	note C_, 2
	octave 4
	note A_, 2
	note F_, 2
	note C_, 2
	loopchannel 2, Music_HoennTrainerBattle_P2
.loop2
	note E_, 2
	note C_, 2
	note E_, 2
	note G_, 2
	octave 5
	note C_, 2
	octave 4
	note G_, 2
	note E_, 2
	note C_, 2
	loopchannel 2, .loop2
	endchannel

Music_HoennTrainerBattle_P3:
	octave 5
	note C_, 6
	octave 4
	note G_, 6
	octave 5
	note C_, 2
	note E_, 2
	note F_, 6
	octave 4
	note A#, 4
	octave 5
	note D_, 6
Music_HoennTrainerBattle_P4:
	note F_, 6
	note A#, 4
	note A_, 2
	note G_, 2
	note F_, 2
	endchannel

Music_HoennTrainerBattle_P5:
	octave 6
	note C_, 6
	note C#, 6
	octave 4
	note C_, 4
	octave 5
	note G_, 6
	note G#, 6
	octave 4
	note C#, 4
	endchannel
