Music_HoennGymBattle:
	channelcount 3
	channel 1, Music_HoennGymBattle_Ch1
	channel 2, Music_HoennGymBattle_Ch2
	channel 3, Music_HoennGymBattle_Ch3

Music_HoennGymBattle_Ch1:
	tempo $61
	dutycycle $3
	notetype $c, $c7
	note __, 4
	octave 2
	note G_, 1
	note G#, 1
	note A_, 1
	note A#, 1
	note B_, 1
	octave 3
	note C_, 1
	note C#, 1
	note D_, 1
	octave 2
	note C_, 1
	note C#, 1
	note D_, 1
	note D#, 1
	note E_, 1
	note F_, 1
	note F#, 1
	note G_, 1
	note G#, 1
	note A_, 1
	note A#, 1
	note B_, 1
	octave 3
	note C_, 1
	note C#, 1
	note D_, 1
	note D#, 1
	note E_, 1
	note F_, 1
	note F#, 1
	note G_, 1
	dutycycle $0
	vibrato $9, $12
	forceoctave $10
	callchannel Music_LibHoennBattle_5
	octave 3
	note A#, 4
	callchannel Music_LibHoennBattle_5
	note G#, 4
	forceoctave 0
	dutycycle $3
	vibrato $0, $0
	octave 4
	note C_, 8
	octave 3
	note C_, 8
	note G_, 8
	note C#, 8
	octave 4
	note C_, 8
	octave 3
	note C_, 8
	octave 4
	note C#, 8
	octave 3
	note D#, 4
	octave 4
	note C#, 4
Music_HoennGymBattle_L1:
	vibrato $11, $12
	octave 3
	note G_, 8
	note F_, 7
	note G#, 1
	note G_, 6
	note C_, 2
	note __, 2
	note C_, 2
	note D_, 2
	note F_, 2
	note G_, 6
	octave 4
	note C_, 6
	octave 3
	note A#, 2
	note A_, 2
	note A#, 2
	octave 4
	note C_, 2
	note __, 2
	octave 3
	note G_, 10
	callchannel Music_HoennGymBattle_P2
	note C_, 16
	note D_, 8
	note C_, 8
	octave 3
	note A#, 8
	octave 4
	note D_, 8
	note E_, 12
	note D_, 4
	note C_, 16
	intensity $c3
	vibrato $0, $0
	octave 3
	note C_, 6
	note F_, 6
	note E_, 4
	note F_, 6
	note C_, 2
	note __, 2
	note C_, 2
	note D_, 2
	note F_, 2
	note G_, 6
	note C_, 6
	note A#, 2
	note A_, 2
	note A#, 2
	octave 4
	note C_, 2
	note __, 2
	octave 3
	note G_, 10
	dutycycle $0
	intensity $c7
	vibrato $9, $12
	callchannel Music_HoennGymBattle_P2
	note C_, 10
	dutycycle $3
	vibrato $11, $12
	octave 3
	note G_, 2
	octave 4
	note C_, 2
	note __, 2
	note D_, 8
	note C_, 8
	octave 3
	note A#, 8
	octave 4
	note D_, 8
	note E_, 12
	note C_, 4
	note G_, 16
	intensity $c3
	vibrato $0, $0
	octave 3
	note C_, 6
	octave 2
	note A#, 6
	octave 3
	note C_, 4
	note D_, 6
	octave 2
	note A#, 6
	octave 3
	note D_, 4
	note C_, 16
	note __, 16
	note __, 16
	note __, 16
	dutycycle $1
	intensity $a8
	forceoctave $20
	callchannel Music_HoennGymBattle_P3
	forceoctave $10
	callchannel Music_HoennGymBattle_P3
	forceoctave 0
	octave 2
	note A#, 16
	note A#, 16
	note A#, 16
	note A#, 16
	note A#, 16
	note A#, 16
	dutycycle $3
	intensity $c1
	callchannel Music_HoennGymBattle_P4
	forceoctave 1
	callchannel Music_HoennGymBattle_P4
	intensity $c7
	loopchannel 0, Music_HoennGymBattle_L1

Music_HoennGymBattle_Ch2:
	dutycycle $1
	notetype $c, $c7
	octave 5
	note C_, 1
	octave 4
	note B_, 1
	note A#, 1
	note A_, 1
	note G#, 1
	note G_, 1
	note F#, 1
	note F_, 1
	note G#, 1
	note G_, 1
	note F#, 1
	note F_, 1
	note E_, 1
	note D#, 1
	note D_, 1
	note C#, 1
	note E_, 1
	note D#, 1
	note D_, 1
	note C#, 1
	note C_, 1
	octave 3
	note B_, 1
	note A#, 1
	note A_, 1
	octave 4
	note C_, 1
	octave 3
	note B_, 1
	note A#, 1
	note A_, 1
	note A#, 1
	note A_, 1
	note A#, 1
	note B_, 1
	dutycycle $0
	vibrato $9, $12
	callchannel Music_LibHoennBattle_4
	dutycycle $2
	intensity $b2
	vibrato $0, $0
	octave 5
	note C_, 2
	note __, 4
	note C#, 2
	note __, 4
	octave 4
	note C_, 4
	note G_, 2
	note __, 4
	note G#, 2
	note __, 4
	note C_, 4
	octave 5
	note C_, 2
	note __, 4
	note C#, 2
	note __, 4
	octave 4
	note G_, 4
	octave 5
	note C_, 2
	note __, 4
	note C#, 2
	note __, 4
	note D#, 4
	dutycycle $1
Music_HoennGymBattle_L2:
	intensity $c7
	vibrato $11, $12
	callchannel Music_HoennGymBattle_P1
	note G_, 16
	note A#, 8
	note A_, 8
	note A#, 4
	note A_, 4
	octave 5
	note D_, 4
	note F_, 4
	note E_, 12
	note D_, 4
	note C_, 16
	dutycycle $0
	vibrato $9, $12
	callchannel Music_HoennGymBattle_P1
	note G_, 10
	dutycycle $1
	vibrato $11, $12
	note G_, 2
	octave 5
	note C_, 2
	note __, 2
	octave 4
	note A#, 8
	note A_, 8
	note A#, 4
	note A_, 4
	octave 5
	note D_, 4
	note F_, 4
	note E_, 12
	note C_, 4
	note G_, 16
	intensity $c3
	vibrato $0, $0
	octave 3
	note G_, 6
	note F_, 6
	note G_, 4
	note A_, 6
	note F_, 6
	note A_, 4
	note G_, 16
	intensity $a8
	forceoctave $20
	octave 4
	callchannel Music_HoennGymBattle_P5
	forceoctave $10
	callchannel Music_HoennGymBattle_P3
	forceoctave 0
	callchannel Music_HoennGymBattle_P3
	note F_, 16
	note F_, 16
	note F_, 16
	note F_, 16
	note F_, 16
	note F_, 16
	octave 3
	note C_, 16
	octave 2
	note A#, 7
	octave 3
	note C_, 1
	note D_, 8
	octave 2
	note G_, 16
	octave 3
	note C_, 16
	note C#, 16
	octave 2
	note A#, 8
	octave 3
	note C#, 6
	note E_, 2
	note C_, 16
	note E_, 16
	loopchannel 0, Music_HoennGymBattle_L2

Music_HoennGymBattle_Ch3:
	notetype $c, $19
	octave 4
	note C_, 4
	octave 3
	note C_, 4
	note A#, 4
	note C#, 4
	note G#, 4
	note A#, 2
	note G#, 2
	note G_, 2
	note F_, 2
	note D#, 2
	note C#, 2
Music_HoennGymBattle_L3:
	callchannel Music_LibHoennBattle_3
	loopchannel 4, Music_HoennGymBattle_L3
Music_HoennGymBattle_L4:
	callchannel Music_LibHoennBattle_5th_7
	note C_, 2
	note D_, 2
	callchannel Music_LibHoennBattle_5th_6
	note G_, 2
	note C_, 2
	note D_, 2
	note C_, 2
	forceoctave A# + $f
	callchannel Music_LibHoennBattle_5th_7
	note C_, 2
	note C#, 2
	forceoctave C_ - 1
	callchannel Music_LibHoennBattle_5th_7
	note E_, 2
	note G_, 2
	forceoctave A# + $f
	callchannel Music_LibHoennBattle_5th_8
	forceoctave C_ - 1
	callchannel Music_LibHoennBattle_5th_7
	octave 4
	note C_, 2
	octave 3
	note G_, 2
	forceoctave C_ - 1
	callchannel Music_LibHoennBattle_5th_7
	callchannel Music_LibHoennBattle_5th_6
	note __, 2
	note G_, 2
	octave 4
	note C_, 2
	octave 3
	note C_, 2
	note D_, 2
	note C_, 2
	forceoctave A# + $f
	callchannel Music_LibHoennBattle_5th_7
	note C_, 2
	note C#, 2
	forceoctave C_ - 1
	callchannel Music_LibHoennBattle_5th_7
	note E_, 2
	note C_, 2
	forceoctave A# + $f
	callchannel Music_LibHoennBattle_5th_8
	forceoctave C_ - 1
	callchannel Music_LibHoennBattle_5th_7
	note E_, 2
	note G_, 2
	callchannel Music_LibHoennBattle_5th_8
	callchannel Music_LibHoennBattle_5th_8
Music_HoennGymBattle_L5:
	forceoctave C# - 1
	callchannel Music_LibHoennBattle_5th_4
	forceoctave D# - 1
	callchannel Music_LibHoennBattle_5th_4
	forceoctave C_ - 1
	callchannel Music_LibHoennBattle_5th_8
	loopchannel 2, Music_HoennGymBattle_L5
	forceoctave C# - 1
	callchannel Music_LibHoennBattle_5th_4
	forceoctave D# - 1
	callchannel Music_LibHoennBattle_5th_4
	forceoctave A# + $f
	callchannel Music_LibHoennBattle_5th_8
	callchannel Music_LibHoennBattle_5th_8
	callchannel Music_LibHoennBattle_5th_8
	forceoctave C_ - 1
	callchannel Music_LibHoennBattle_5th_8
	callchannel Music_LibHoennBattle_5th_8
	forceoctave A# + $f
	callchannel Music_LibHoennBattle_5th_8
	forceoctave C_ - 1
	callchannel Music_LibHoennBattle_5th_7
	octave 4
	note C_, 2
	octave 3
	note G_, 2
	loopchannel 0, Music_HoennGymBattle_L4

Music_HoennGymBattle_P1:
	octave 4
	note C_, 8
	octave 3
	note A#, 8
	octave 4
	note D_, 6
	octave 3
	note G_, 2
	note __, 2
	note G_, 2
	note A#, 2
	octave 4
	note D_, 2
	note E_, 12
	note D_, 2
	note E_, 2
	note F_, 2
	note E_, 2
	note __, 2
	note C_, 10
	note A#, 8
	note A_, 8
	note G_, 4
	note A_, 4
	note G_, 4
	note F_, 4
	note E_, 12
	note C_, 4
	endchannel

Music_HoennGymBattle_P2:
	octave 4
	note D_, 8
	note C_, 8
	octave 3
	note A#, 4
	octave 4
	note C_, 4
	octave 3
	note A#, 4
	note A_, 4
	note G_, 12
	note E_, 4
	octave 4
	endchannel

Music_HoennGymBattle_P3:
	octave 4
	note C_, 16
Music_HoennGymBattle_P5:
	note C_, 12
	note C_, 2
	octave 3
	note A#, 2
	octave 4
	note C#, 16
	note D#, 16
	endchannel

Music_HoennGymBattle_P4:
	octave 3
	note G_, 2
	note C_, 2
	note G_, 2
	octave 4
	note C_, 2
	note G_, 2
	note C_, 2
	octave 3
	note G_, 2
	octave 4
	note C_, 2
	loopchannel 2, Music_HoennGymBattle_P4
	forceoctave 0
.loop2
	octave 3
	note G_, 2
	note C_, 2
	note G_, 2
	octave 4
	note C_, 2
	note E_, 2
	note C_, 2
	octave 3
	note G_, 2
	octave 4
	note C_, 2
	loopchannel 2, .loop2
	endchannel
